<mxfile host="drawio-plugin" modified="2021-08-21T17:33:52.821Z" agent="5.0 (Windows NT 6.2; Win64; x64) AppleWebKit/537.36 (KHTML, like Gecko) Chrome/89.0.4389.114 Safari/537.36" etag="eMcgwsw1CUx7TLsp-t2D" version="14.7.4" type="embed"><diagram id="23iRSUPoRavnBvh4doch" name="Page-1"><mxGraphModel dx="2487" dy="880" grid="1" gridSize="10" guides="1" tooltips="1" connect="1" arrows="1" fold="1" page="1" pageScale="1" pageWidth="827" pageHeight="1169" math="0" shadow="0"><root><mxCell id="0"/><mxCell id="1" parent="0"/><mxCell id="41" style="edgeStyle=orthogonalEdgeStyle;rounded=0;orthogonalLoop=1;jettySize=auto;html=1;" parent="1" source="2" target="37" edge="1"><mxGeometry relative="1" as="geometry"/></mxCell><mxCell id="2" value="Start&#10;ru.tcreator" style="swimlane;fontStyle=0;childLayout=stackLayout;horizontal=1;startSize=40;fillColor=none;horizontalStack=0;resizeParent=1;resizeParentMax=0;resizeLast=0;collapsible=1;marginBottom=0;" parent="1" vertex="1"><mxGeometry x="320" y="150" width="140" height="66" as="geometry"/></mxCell><mxCell id="5" value="+ main(String[]) : void" style="text;strokeColor=none;fillColor=none;align=left;verticalAlign=top;spacingLeft=4;spacingRight=4;overflow=hidden;rotatable=0;points=[[0,0.5],[1,0.5]];portConstraint=eastwest;" parent="2" vertex="1"><mxGeometry y="40" width="140" height="26" as="geometry"/></mxCell><mxCell id="57" style="edgeStyle=orthogonalEdgeStyle;rounded=0;orthogonalLoop=1;jettySize=auto;html=1;startArrow=none;startFill=0;endArrow=diamond;endFill=1;" parent="1" source="8" target="52" edge="1"><mxGeometry relative="1" as="geometry"/></mxCell><mxCell id="112" style="edgeStyle=orthogonalEdgeStyle;rounded=0;orthogonalLoop=1;jettySize=auto;html=1;fontSize=23;startArrow=none;startFill=0;endArrow=none;endFill=0;" parent="1" source="8" edge="1"><mxGeometry relative="1" as="geometry"><mxPoint x="-150" y="190" as="targetPoint"/><Array as="points"><mxPoint x="360" y="640"/><mxPoint x="-150" y="640"/></Array></mxGeometry></mxCell><mxCell id="116" style="edgeStyle=orthogonalEdgeStyle;rounded=0;orthogonalLoop=1;jettySize=auto;html=1;entryX=0.693;entryY=-0.019;entryDx=0;entryDy=0;entryPerimeter=0;fontSize=12;startArrow=none;startFill=0;endArrow=classic;endFill=1;" parent="1" source="8" target="104" edge="1"><mxGeometry relative="1" as="geometry"><Array as="points"><mxPoint x="260" y="553"/><mxPoint x="260" y="700"/><mxPoint x="-12" y="700"/></Array></mxGeometry></mxCell><mxCell id="8" value="ClientHandler&#10;ru.tcreator.serv" style="swimlane;fontStyle=1;align=center;verticalAlign=top;childLayout=stackLayout;horizontal=1;startSize=40;horizontalStack=0;resizeParent=1;resizeParentMax=0;resizeLast=0;collapsible=1;marginBottom=0;" parent="1" vertex="1"><mxGeometry x="310" y="520" width="160" height="66" as="geometry"/></mxCell><mxCell id="11" value="+ run() : void" style="text;strokeColor=none;fillColor=none;align=left;verticalAlign=top;spacingLeft=4;spacingRight=4;overflow=hidden;rotatable=0;points=[[0,0.5],[1,0.5]];portConstraint=eastwest;" parent="8" vertex="1"><mxGeometry y="40" width="160" height="26" as="geometry"/></mxCell><mxCell id="15" value="ClientHandlerAbstract&#10;ru.tcreator.serv" style="swimlane;fontStyle=1;align=center;verticalAlign=top;childLayout=stackLayout;horizontal=1;startSize=40;horizontalStack=0;resizeParent=1;resizeParentMax=0;resizeLast=0;collapsible=1;marginBottom=0;" parent="1" vertex="1"><mxGeometry x="690" y="460" width="160" height="190" as="geometry"/></mxCell><mxCell id="16" value="# in : BufferedReader&#10;# socket : Socket&#10;# out : BufferedWriter&#10;# terminalReader : BufferedReader" style="text;strokeColor=none;fillColor=none;align=left;verticalAlign=top;spacingLeft=4;spacingRight=4;overflow=hidden;rotatable=0;points=[[0,0.5],[1,0.5]];portConstraint=eastwest;" parent="15" vertex="1"><mxGeometry y="40" width="160" height="70" as="geometry"/></mxCell><mxCell id="17" value="" style="line;strokeWidth=1;fillColor=none;align=left;verticalAlign=middle;spacingTop=-1;spacingLeft=3;spacingRight=3;rotatable=0;labelPosition=right;points=[];portConstraint=eastwest;" parent="15" vertex="1"><mxGeometry y="110" width="160" height="8" as="geometry"/></mxCell><mxCell id="18" value="# constructor(Socket) : this&#10;# close() : void &#10;# writeOut( String ) : void&#10;# readIn() : String" style="text;strokeColor=none;fillColor=none;align=left;verticalAlign=top;spacingLeft=4;spacingRight=4;overflow=hidden;rotatable=0;points=[[0,0.5],[1,0.5]];portConstraint=eastwest;" parent="15" vertex="1"><mxGeometry y="118" width="160" height="72" as="geometry"/></mxCell><mxCell id="19" value="" style="endArrow=none;html=1;edgeStyle=orthogonalEdgeStyle;entryX=-0.026;entryY=0.763;entryDx=0;entryDy=0;entryPerimeter=0;exitX=-0.026;exitY=0.763;exitDx=0;exitDy=0;exitPerimeter=0;endFill=0;startArrow=block;startFill=0;" parent="15" source="16" edge="1"><mxGeometry relative="1" as="geometry"><mxPoint x="-90" y="120" as="sourcePoint"/><mxPoint x="-220" y="93" as="targetPoint"/><Array as="points"><mxPoint x="-90" y="93"/><mxPoint x="-90" y="93"/></Array></mxGeometry></mxCell><mxCell id="20" value="parent" style="edgeLabel;resizable=0;html=1;align=left;verticalAlign=bottom;" parent="19" connectable="0" vertex="1"><mxGeometry x="-1" relative="1" as="geometry"><mxPoint x="-56" as="offset"/></mxGeometry></mxCell><mxCell id="21" value="child" style="edgeLabel;resizable=0;html=1;align=right;verticalAlign=bottom;" parent="19" connectable="0" vertex="1"><mxGeometry x="1" relative="1" as="geometry"><mxPoint x="29" y="-3" as="offset"/></mxGeometry></mxCell><mxCell id="22" value="ServerMessageListener&#10;ru.tcreator.serv" style="swimlane;fontStyle=1;align=center;verticalAlign=top;childLayout=stackLayout;horizontal=1;startSize=38;horizontalStack=0;resizeParent=1;resizeParentMax=0;resizeLast=0;collapsible=1;marginBottom=0;" parent="1" vertex="1"><mxGeometry x="20" y="522" width="160" height="64" as="geometry"/></mxCell><mxCell id="26" value="thread" style="text;align=center;fontStyle=1;verticalAlign=middle;spacingLeft=3;spacingRight=3;strokeColor=none;rotatable=0;points=[[0,0.5],[1,0.5]];portConstraint=eastwest;" parent="1" vertex="1"><mxGeometry x="20" y="496" width="80" height="26" as="geometry"/></mxCell><mxCell id="113" style="edgeStyle=orthogonalEdgeStyle;rounded=0;orthogonalLoop=1;jettySize=auto;html=1;entryX=0;entryY=0.5;entryDx=0;entryDy=0;fontSize=23;startArrow=none;startFill=0;endArrow=none;endFill=0;exitX=1;exitY=0.5;exitDx=0;exitDy=0;" parent="1" source="22" target="59" edge="1"><mxGeometry relative="1" as="geometry"><mxPoint x="190" y="550" as="sourcePoint"/><Array as="points"><mxPoint x="180" y="550"/><mxPoint x="210" y="550"/><mxPoint x="210" y="967"/></Array></mxGeometry></mxCell><mxCell id="28" value="+ run() : void" style="text;strokeColor=none;fillColor=none;align=left;verticalAlign=top;spacingLeft=4;spacingRight=4;overflow=hidden;rotatable=0;points=[[0,0.5],[1,0.5]];portConstraint=eastwest;" parent="1" vertex="1"><mxGeometry x="20" y="560" width="160" height="26" as="geometry"/></mxCell><mxCell id="29" value="" style="endArrow=none;html=1;edgeStyle=orthogonalEdgeStyle;exitX=-0.026;exitY=0.763;exitDx=0;exitDy=0;exitPerimeter=0;startArrow=block;startFill=0;" parent="1" edge="1"><mxGeometry relative="1" as="geometry"><mxPoint x="689.9999999999999" y="606.41" as="sourcePoint"/><mxPoint x="90" y="586" as="targetPoint"/></mxGeometry></mxCell><mxCell id="30" value="parent" style="edgeLabel;resizable=0;html=1;align=left;verticalAlign=bottom;" parent="29" connectable="0" vertex="1"><mxGeometry x="-1" relative="1" as="geometry"><mxPoint x="-50" y="-6" as="offset"/></mxGeometry></mxCell><mxCell id="31" value="child" style="edgeLabel;resizable=0;html=1;align=right;verticalAlign=bottom;" parent="29" connectable="0" vertex="1"><mxGeometry x="1" relative="1" as="geometry"><mxPoint x="-10" y="24" as="offset"/></mxGeometry></mxCell><mxCell id="32" value="thread" style="text;align=center;fontStyle=1;verticalAlign=middle;spacingLeft=3;spacingRight=3;strokeColor=none;rotatable=0;points=[[0,0.5],[1,0.5]];portConstraint=eastwest;" parent="1" vertex="1"><mxGeometry x="310" y="490" width="80" height="26" as="geometry"/></mxCell><mxCell id="42" style="edgeStyle=orthogonalEdgeStyle;rounded=0;orthogonalLoop=1;jettySize=auto;html=1;" parent="1" source="37" target="8" edge="1"><mxGeometry relative="1" as="geometry"/></mxCell><mxCell id="37" value="Server&#10;ru.tcreator/serv" style="swimlane;fontStyle=1;align=center;verticalAlign=top;childLayout=stackLayout;horizontal=1;startSize=40;horizontalStack=0;resizeParent=1;resizeParentMax=0;resizeLast=0;collapsible=1;marginBottom=0;" parent="1" vertex="1"><mxGeometry x="310" y="330" width="160" height="66" as="geometry"/></mxCell><mxCell id="40" value="+ run() : void" style="text;strokeColor=none;fillColor=none;align=left;verticalAlign=top;spacingLeft=4;spacingRight=4;overflow=hidden;rotatable=0;points=[[0,0.5],[1,0.5]];portConstraint=eastwest;" parent="37" vertex="1"><mxGeometry y="40" width="160" height="26" as="geometry"/></mxCell><mxCell id="43" style="edgeStyle=orthogonalEdgeStyle;rounded=0;orthogonalLoop=1;jettySize=auto;html=1;" parent="1" source="40" edge="1"><mxGeometry relative="1" as="geometry"><mxPoint x="90" y="522" as="targetPoint"/><Array as="points"><mxPoint x="90" y="383"/><mxPoint x="90" y="522"/></Array></mxGeometry></mxCell><mxCell id="44" value="make thread" style="text;align=center;fontStyle=1;verticalAlign=middle;spacingLeft=3;spacingRight=3;strokeColor=none;rotatable=0;points=[[0,0.5],[1,0.5]];portConstraint=eastwest;" parent="1" vertex="1"><mxGeometry x="220" y="360" width="80" height="22" as="geometry"/></mxCell><mxCell id="45" value="make thread" style="text;align=center;fontStyle=1;verticalAlign=middle;spacingLeft=3;spacingRight=3;strokeColor=none;rotatable=0;points=[[0,0.5],[1,0.5]];portConstraint=eastwest;" parent="1" vertex="1"><mxGeometry x="310" y="420" width="80" height="22" as="geometry"/></mxCell><mxCell id="51" style="edgeStyle=orthogonalEdgeStyle;rounded=0;orthogonalLoop=1;jettySize=auto;html=1;entryX=0.008;entryY=-0.055;entryDx=0;entryDy=0;entryPerimeter=0;startArrow=diamond;startFill=0;endArrow=none;endFill=0;" parent="1" source="47" target="5" edge="1"><mxGeometry relative="1" as="geometry"><Array as="points"><mxPoint x="-380" y="189"/></Array></mxGeometry></mxCell><mxCell id="47" value="Log&#10;ru.tcreator.logger" style="swimlane;fontStyle=0;childLayout=stackLayout;horizontal=1;startSize=40;fillColor=none;horizontalStack=0;resizeParent=1;resizeParentMax=0;resizeLast=0;collapsible=1;marginBottom=0;" parent="1" vertex="1"><mxGeometry x="-450" y="80" width="140" height="66" as="geometry"/></mxCell><mxCell id="49" value="+ static logger : Logger" style="text;strokeColor=none;fillColor=none;align=left;verticalAlign=top;spacingLeft=4;spacingRight=4;overflow=hidden;rotatable=0;points=[[0,0.5],[1,0.5]];portConstraint=eastwest;" parent="47" vertex="1"><mxGeometry y="40" width="140" height="26" as="geometry"/></mxCell><mxCell id="56" style="edgeStyle=orthogonalEdgeStyle;rounded=0;orthogonalLoop=1;jettySize=auto;html=1;entryX=1;entryY=0.5;entryDx=0;entryDy=0;startArrow=diamond;startFill=1;endArrow=none;endFill=0;" parent="1" source="52" target="37" edge="1"><mxGeometry relative="1" as="geometry"><Array as="points"><mxPoint x="550" y="825"/><mxPoint x="550" y="363"/></Array></mxGeometry></mxCell><mxCell id="52" value="Nickname&#10;ru.tcreator.entities" style="swimlane;fontStyle=1;align=center;verticalAlign=top;childLayout=stackLayout;horizontal=1;startSize=40;horizontalStack=0;resizeParent=1;resizeParentMax=0;resizeLast=0;collapsible=1;marginBottom=0;" parent="1" vertex="1"><mxGeometry x="310" y="760" width="160" height="130" as="geometry"/></mxCell><mxCell id="53" value="# static instance : Nickname&#10;# nickname : String" style="text;strokeColor=none;fillColor=none;align=left;verticalAlign=top;spacingLeft=4;spacingRight=4;overflow=hidden;rotatable=0;points=[[0,0.5],[1,0.5]];portConstraint=eastwest;" parent="52" vertex="1"><mxGeometry y="40" width="160" height="40" as="geometry"/></mxCell><mxCell id="54" value="" style="line;strokeWidth=1;fillColor=none;align=left;verticalAlign=middle;spacingTop=-1;spacingLeft=3;spacingRight=3;rotatable=0;labelPosition=right;points=[];portConstraint=eastwest;" parent="52" vertex="1"><mxGeometry y="80" width="160" height="8" as="geometry"/></mxCell><mxCell id="55" value="+ static getInstance() : Nickname&#10;+ getNickName() : boolean" style="text;strokeColor=none;fillColor=none;align=left;verticalAlign=top;spacingLeft=4;spacingRight=4;overflow=hidden;rotatable=0;points=[[0,0.5],[1,0.5]];portConstraint=eastwest;" parent="52" vertex="1"><mxGeometry y="88" width="160" height="42" as="geometry"/></mxCell><mxCell id="58" value="getNickname() : boolean" style="text;html=1;align=center;verticalAlign=middle;resizable=0;points=[];autosize=1;strokeColor=none;rotation=90;" parent="1" vertex="1"><mxGeometry x="490" y="680" width="150" height="20" as="geometry"/></mxCell><mxCell id="67" style="edgeStyle=orthogonalEdgeStyle;rounded=0;orthogonalLoop=1;jettySize=auto;html=1;entryX=0.48;entryY=-0.014;entryDx=0;entryDy=0;entryPerimeter=0;startArrow=none;startFill=0;endArrow=diamond;endFill=1;" parent="1" source="59" target="63" edge="1"><mxGeometry relative="1" as="geometry"/></mxCell><mxCell id="59" value="MessageBuilder&#10;ru.tcreator.entities" style="swimlane;fontStyle=0;childLayout=stackLayout;horizontal=1;startSize=47;fillColor=none;horizontalStack=0;resizeParent=1;resizeParentMax=0;resizeLast=0;collapsible=1;marginBottom=0;" parent="1" vertex="1"><mxGeometry x="700" y="930" width="180" height="73" as="geometry"/></mxCell><mxCell id="60" value="+ buildMessage() : Message" style="text;strokeColor=none;fillColor=none;align=left;verticalAlign=top;spacingLeft=4;spacingRight=4;overflow=hidden;rotatable=0;points=[[0,0.5],[1,0.5]];portConstraint=eastwest;" parent="59" vertex="1"><mxGeometry y="47" width="180" height="26" as="geometry"/></mxCell><mxCell id="63" value="Message&#10;ru.tcreaator.entities" style="swimlane;fontStyle=0;childLayout=stackLayout;horizontal=1;startSize=40;fillColor=none;horizontalStack=0;resizeParent=1;resizeParentMax=0;resizeLast=0;collapsible=1;marginBottom=0;" parent="1" vertex="1"><mxGeometry x="660" y="1107" width="270" height="110" as="geometry"/></mxCell><mxCell id="64" value="+ constructor(String, String) : this&#10;+ constructor(String, String, String) : this&#10;+ constructor(String, String, String, String) : this&#10;+ toString() : String" style="text;strokeColor=none;fillColor=none;align=left;verticalAlign=top;spacingLeft=4;spacingRight=4;overflow=hidden;rotatable=0;points=[[0,0.5],[1,0.5]];portConstraint=eastwest;" parent="63" vertex="1"><mxGeometry y="40" width="270" height="70" as="geometry"/></mxCell><mxCell id="68" value="StringParser&#10;ru.tcreator.parser" style="swimlane;fontStyle=1;align=center;verticalAlign=top;childLayout=stackLayout;horizontal=1;startSize=40;horizontalStack=0;resizeParent=1;resizeParentMax=0;resizeLast=0;collapsible=1;marginBottom=0;" parent="1" vertex="1"><mxGeometry x="860" y="170" width="160" height="180" as="geometry"/></mxCell><mxCell id="69" value="# cleanCommand : String&#10;# messaage : String&#10;# parameter : String" style="text;strokeColor=none;fillColor=none;align=left;verticalAlign=top;spacingLeft=4;spacingRight=4;overflow=hidden;rotatable=0;points=[[0,0.5],[1,0.5]];portConstraint=eastwest;" parent="68" vertex="1"><mxGeometry y="40" width="160" height="50" as="geometry"/></mxCell><mxCell id="70" value="" style="line;strokeWidth=1;fillColor=none;align=left;verticalAlign=middle;spacingTop=-1;spacingLeft=3;spacingRight=3;rotatable=0;labelPosition=right;points=[];portConstraint=eastwest;" parent="68" vertex="1"><mxGeometry y="90" width="160" height="8" as="geometry"/></mxCell><mxCell id="71" value="+ constructor(String) : this&#10;# parseMessageString(String) : String[]&#10;+ getCommand() : String&#10;+ getParameter() : String&#10;+ getMessage() : String" style="text;strokeColor=none;fillColor=none;align=left;verticalAlign=top;spacingLeft=4;spacingRight=4;overflow=hidden;rotatable=0;points=[[0,0.5],[1,0.5]];portConstraint=eastwest;" parent="68" vertex="1"><mxGeometry y="98" width="160" height="82" as="geometry"/></mxCell><mxCell id="72" style="edgeStyle=orthogonalEdgeStyle;rounded=0;orthogonalLoop=1;jettySize=auto;html=1;exitX=0.75;exitY=0;exitDx=0;exitDy=0;endArrow=diamond;endFill=1;" parent="1" source="8" target="71" edge="1"><mxGeometry relative="1" as="geometry"><Array as="points"><mxPoint x="430" y="490"/><mxPoint x="630" y="490"/><mxPoint x="630" y="329"/></Array></mxGeometry></mxCell><mxCell id="118" style="edgeStyle=orthogonalEdgeStyle;rounded=0;orthogonalLoop=1;jettySize=auto;html=1;entryX=0;entryY=0.5;entryDx=0;entryDy=0;fontSize=13;startArrow=none;startFill=0;endArrow=classic;endFill=1;" parent="1" source="119" target="28" edge="1"><mxGeometry relative="1" as="geometry"><Array as="points"><mxPoint x="-220" y="422"/><mxPoint x="-220" y="573"/></Array></mxGeometry></mxCell><mxCell id="90" value="JSON&#10;ru.tcreator.parser" style="swimlane;fontStyle=1;align=center;verticalAlign=top;childLayout=stackLayout;horizontal=1;startSize=40;horizontalStack=0;resizeParent=1;resizeParentMax=0;resizeLast=0;collapsible=1;marginBottom=0;" parent="1" vertex="1"><mxGeometry x="-730" y="382" width="250" height="104" as="geometry"/></mxCell><mxCell id="91" value="# static gson: Gson" style="text;strokeColor=none;fillColor=none;align=left;verticalAlign=top;spacingLeft=4;spacingRight=4;overflow=hidden;rotatable=0;points=[[0,0.5],[1,0.5]];portConstraint=eastwest;" parent="90" vertex="1"><mxGeometry y="40" width="250" height="26" as="geometry"/></mxCell><mxCell id="92" value="+ static toJson(Message) : String&#10;+ static fromJsonMessage(String) : Message" style="text;strokeColor=none;fillColor=none;align=left;verticalAlign=top;spacingLeft=4;spacingRight=4;overflow=hidden;rotatable=0;points=[[0,0.5],[1,0.5]];portConstraint=eastwest;" parent="90" vertex="1"><mxGeometry y="66" width="250" height="38" as="geometry"/></mxCell><mxCell id="93" value="JSONMessageLog&#10;ru.tcreator.parser" style="swimlane;fontStyle=1;align=center;verticalAlign=top;childLayout=stackLayout;horizontal=1;startSize=40;horizontalStack=0;resizeParent=1;resizeParentMax=0;resizeLast=0;collapsible=1;marginBottom=0;" parent="1" vertex="1"><mxGeometry x="-720" y="600" width="230" height="80" as="geometry"/></mxCell><mxCell id="96" value="+ addMessageFile(Message) : void&#10;- readMessageSource() : List&lt;Message&gt;" style="text;strokeColor=none;fillColor=none;align=left;verticalAlign=top;spacingLeft=4;spacingRight=4;overflow=hidden;rotatable=0;points=[[0,0.5],[1,0.5]];portConstraint=eastwest;" parent="93" vertex="1"><mxGeometry y="40" width="230" height="40" as="geometry"/></mxCell><mxCell id="98" value="" style="endArrow=none;html=1;edgeStyle=orthogonalEdgeStyle;startArrow=block;startFill=0;" parent="1" edge="1"><mxGeometry relative="1" as="geometry"><mxPoint x="-605" y="486" as="sourcePoint"/><mxPoint x="-605" y="602" as="targetPoint"/><Array as="points"><mxPoint x="-605" y="486"/><mxPoint x="-605" y="544"/><mxPoint x="-634" y="544"/></Array></mxGeometry></mxCell><mxCell id="99" value="parent" style="edgeLabel;resizable=0;html=1;align=left;verticalAlign=bottom;" parent="98" connectable="0" vertex="1"><mxGeometry x="-1" relative="1" as="geometry"><mxPoint x="5" y="24" as="offset"/></mxGeometry></mxCell><mxCell id="100" value="child" style="edgeLabel;resizable=0;html=1;align=right;verticalAlign=bottom;" parent="98" connectable="0" vertex="1"><mxGeometry x="1" relative="1" as="geometry"><mxPoint x="-5" y="-2" as="offset"/></mxGeometry></mxCell><mxCell id="102" value="parse console text to command" style="text;html=1;align=center;verticalAlign=middle;resizable=0;points=[];autosize=1;strokeColor=none;" parent="1" vertex="1"><mxGeometry x="640" y="310" width="180" height="20" as="geometry"/></mxCell><mxCell id="103" value="builder" style="text;html=1;align=center;verticalAlign=middle;resizable=0;points=[];autosize=1;strokeColor=none;" parent="1" vertex="1"><mxGeometry x="797" y="1010" width="50" height="20" as="geometry"/></mxCell><mxCell id="106" style="edgeStyle=orthogonalEdgeStyle;rounded=0;orthogonalLoop=1;jettySize=auto;html=1;entryX=0;entryY=0.5;entryDx=0;entryDy=0;fontSize=23;startArrow=none;startFill=0;endArrow=block;endFill=1;" parent="1" target="22" edge="1"><mxGeometry relative="1" as="geometry"><mxPoint x="-100" y="790" as="sourcePoint"/><Array as="points"><mxPoint x="-100" y="790"/><mxPoint x="-100" y="554"/></Array></mxGeometry></mxCell><mxCell id="104" value="server" style="shape=umlFrame;whiteSpace=wrap;html=1;" parent="1" vertex="1"><mxGeometry x="-220" y="1030" width="300" height="170" as="geometry"/></mxCell><mxCell id="105" value="TERMINAL-CHAT" style="text;html=1;align=center;verticalAlign=middle;resizable=0;points=[];autosize=1;strokeColor=none;fontSize=23;" parent="1" vertex="1"><mxGeometry x="-170" y="1105" width="200" height="30" as="geometry"/></mxCell><mxCell id="110" style="edgeStyle=orthogonalEdgeStyle;rounded=0;orthogonalLoop=1;jettySize=auto;html=1;fontSize=23;startArrow=none;startFill=0;endArrow=none;endFill=0;" parent="1" source="109" edge="1"><mxGeometry relative="1" as="geometry"><mxPoint x="-150" y="190" as="targetPoint"/></mxGeometry></mxCell><mxCell id="111" style="edgeStyle=orthogonalEdgeStyle;rounded=0;orthogonalLoop=1;jettySize=auto;html=1;entryX=0.096;entryY=0.005;entryDx=0;entryDy=0;entryPerimeter=0;fontSize=23;startArrow=none;startFill=0;endArrow=none;endFill=0;" parent="1" source="109" target="37" edge="1"><mxGeometry relative="1" as="geometry"/></mxCell><mxCell id="109" value="" style="line;strokeWidth=1;fillColor=none;align=left;verticalAlign=middle;spacingTop=-1;spacingLeft=3;spacingRight=3;rotatable=0;labelPosition=right;points=[];portConstraint=eastwest;fontSize=23;" parent="1" vertex="1"><mxGeometry x="-110" y="292" width="210" height="8" as="geometry"/></mxCell><mxCell id="114" value="parse json string from server to Message" style="text;html=1;align=center;verticalAlign=middle;resizable=0;points=[];autosize=1;strokeColor=none;fontSize=12;" parent="1" vertex="1"><mxGeometry x="260" y="940" width="230" height="20" as="geometry"/></mxCell><mxCell id="115" value="json" style="text;html=1;align=center;verticalAlign=middle;resizable=0;points=[];autosize=1;strokeColor=none;fontSize=12;" parent="1" vertex="1"><mxGeometry x="-50" y="530" width="40" height="20" as="geometry"/></mxCell><mxCell id="117" value="send json to server" style="text;html=1;align=center;verticalAlign=middle;resizable=0;points=[];autosize=1;strokeColor=none;fontSize=12;rotation=-90;" parent="1" vertex="1"><mxGeometry x="-90" y="872" width="120" height="20" as="geometry"/></mxCell><mxCell id="119" value="fromJsonMessage()" style="text;html=1;align=center;verticalAlign=middle;resizable=0;points=[];autosize=1;strokeColor=none;fontSize=13;" parent="1" vertex="1"><mxGeometry x="-430" y="410" width="130" height="20" as="geometry"/></mxCell><mxCell id="120" value="" style="edgeStyle=orthogonalEdgeStyle;rounded=0;orthogonalLoop=1;jettySize=auto;html=1;entryX=0;entryY=0.5;entryDx=0;entryDy=0;fontSize=13;startArrow=none;startFill=0;endArrow=none;endFill=1;" parent="1" source="90" target="119" edge="1"><mxGeometry relative="1" as="geometry"><mxPoint x="-480" y="422.0588235294117" as="sourcePoint"/><mxPoint x="20" y="573" as="targetPoint"/><Array as="points"/></mxGeometry></mxCell><mxCell id="107" value="listen to server message" style="text;html=1;align=center;verticalAlign=middle;resizable=0;points=[];autosize=1;strokeColor=none;fontSize=13;rotation=-90;" parent="1" vertex="1"><mxGeometry x="-180" y="852" width="160" height="20" as="geometry"/></mxCell><mxCell id="121" value="" style="edgeStyle=orthogonalEdgeStyle;rounded=0;orthogonalLoop=1;jettySize=auto;html=1;entryX=0;entryY=0.5;entryDx=0;entryDy=0;fontSize=23;startArrow=none;startFill=0;endArrow=none;endFill=1;" parent="1" source="104" target="107" edge="1"><mxGeometry relative="1" as="geometry"><mxPoint x="-69.94117647058829" y="1030" as="sourcePoint"/><mxPoint x="20" y="554" as="targetPoint"/></mxGeometry></mxCell></root></mxGraphModel></diagram></mxfile>